# xmcd CD database file
#
# Track frame offsets:
#	183
#	14130
#	35333
#	49013
#	62065
#	70005
#	85410
#	108280
#	121198
#	145120
#	157483
#	173910
#	200478
#	221318
#
# Disc length: 3232 seconds
#
# Revision: 0
# Processed by: cddbd v1.4PL0 Copyright (c) Steve Scherf et al.
# Submitted via: Feurio! 1.65 - http://www.feurio.com
#
DISCID=c80c9e0e
DTITLE=Dogman and The Shepherds - Lonesome Man Anthology
DYEAR=1900
DGENRE=Bluesrock
TTITLE0=Jail In San Antone
TTITLE1=I Don't Get The Blues (When I'm Stoned)
TTITLE2=Worried About It Baby
TTITLE3=Treat Me Like A Dog
TTITLE4=Steppin Out
TTITLE5=Lonesome Man
TTITLE6=Ît's My Own Fault
TTITLE7=It Wasn't Me
TTITLE8=Little Red Rooster
TTITLE9=Rawhide
TTITLE10=I Knew I Was In Texas
TTITLE11=Theme From Peter Gunn - Secret Agent Man
TTITLE12=Night Time
TTITLE13=How Blue Can You Get
EXTD=1981-1987
EXTT0=
EXTT1=
EXTT2=
EXTT3=
EXTT4=
EXTT5=
EXTT6=
EXTT7=
EXTT8=
EXTT9=
EXTT10=
EXTT11=
EXTT12=Live 1982
EXTT13=Live 1982
PLAYORDER=
